<?xml version="1.0" standalone="no"?>
<!DOCTYPE svg PUBLIC "-//W3C//DTD SVG 20010904//EN"
 "http://www.w3.org/TR/2001/REC-SVG-20010904/DTD/svg10.dtd">
<svg version="1.0" xmlns="http://www.w3.org/2000/svg"
 width="700.000000pt" height="700.000000pt" viewBox="0 0 700.000000 700.000000"
 preserveAspectRatio="xMidYMid meet">
<metadata>
Created by potrace 1.11, written by Peter Selinger 2001-2013
</metadata>
<g transform="translate(0.000000,700.000000) scale(0.100000,-0.100000)"
fill="#000000" stroke="none">
<path d="M3519 6966 c-2 -2 -76 -6 -164 -10 -88 -3 -171 -8 -185 -10 -14 -2
-52 -7 -85 -10 -75 -8 -115 -14 -183 -27 -29 -6 -65 -12 -80 -14 -47 -6 -261
-62 -367 -95 -533 -170 -1002 -456 -1395 -850 -148 -148 -172 -174 -276 -306
-414 -524 -670 -1164 -732 -1829 -15 -161 -7 -608 12 -740 3 -16 7 -48 10 -70
64 -485 266 -1009 559 -1444 319 -474 795 -894 1305 -1150 219 -110 556 -236
710 -266 9 -1 37 -8 62 -15 25 -7 56 -14 70 -16 14 -2 45 -8 70 -14 71 -14
114 -21 220 -35 123 -16 194 -19 415 -20 221 0 390 7 426 19 8 2 41 7 74 10
33 3 85 10 115 16 30 6 69 14 85 16 17 3 83 19 148 35 474 117 934 343 1309
641 140 112 163 132 318 288 369 369 642 808 815 1310 42 122 98 322 111 400
3 14 9 48 14 75 18 91 40 249 48 340 14 182 6 672 -13 727 -2 7 -6 36 -9 63
-6 55 -34 220 -42 247 -3 9 -7 25 -9 35 -32 154 -119 422 -190 587 -125 292
-280 552 -474 796 -107 136 -121 150 -271 300 -329 330 -721 591 -1135 755
-66 26 -129 51 -140 55 -73 30 -362 112 -445 126 -14 3 -59 11 -101 20 -42 8
-92 16 -110 19 -102 11 -154 17 -172 21 -10 2 -83 6 -161 10 -77 3 -144 8
-147 10 -3 2 -8 2 -10 0z m271 -159 c19 -2 64 -8 100 -12 36 -4 76 -9 90 -10
35 -4 102 -15 120 -20 8 -2 31 -7 50 -10 312 -53 740 -219 1055 -408 247 -148
431 -293 651 -512 95 -95 147 -154 287 -326 15 -19 65 -90 111 -159 316 -472
505 -1007 553 -1570 14 -164 7 -574 -11 -680 -3 -14 -7 -47 -11 -74 -3 -28
-17 -106 -31 -175 -102 -517 -325 -998 -652 -1411 -151 -189 -335 -375 -522
-526 -415 -334 -901 -562 -1432 -669 -70 -14 -149 -28 -175 -31 -26 -3 -59 -7
-73 -9 -148 -26 -614 -26 -800 -1 -14 2 -50 7 -80 11 -69 8 -317 60 -390 81
-87 25 -344 112 -395 134 -25 11 -47 20 -50 20 -3 0 -71 34 -152 74 -270 134
-489 280 -723 481 -159 136 -409 417 -542 610 -288 416 -490 935 -554 1420 -3
22 -7 51 -10 65 -19 118 -26 514 -11 685 13 155 44 349 77 483 85 347 229 690
410 982 73 117 93 146 190 273 56 73 61 80 145 177 109 126 268 274 470 438
171 138 503 330 750 432 118 49 364 129 475 155 85 21 254 52 320 60 25 3 55
7 68 10 13 2 65 7 115 11 51 3 94 8 95 9 5 5 437 -3 482 -8z"/>
<path d="M4309 5796 c-1 0 -3 -170 -4 -376 -2 -206 -3 -378 -4 -381 -1 -3 -40
-5 -88 -5 -164 0 -285 -29 -354 -83 -77 -61 -183 -174 -227 -241 -99 -151
-111 -310 -36 -478 84 -190 413 -563 679 -770 l29 -23 1 -417 c0 -229 -1 -422
-3 -429 -2 -7 -29 13 -59 43 -373 370 -1116 368 -1491 -3 -212 -211 -256 -506
-111 -750 101 -169 301 -311 529 -376 113 -33 143 -37 295 -42 329 -11 623
101 810 308 86 94 124 168 162 317 5 19 9 301 9 628 -1 325 1 592 4 592 9 0
141 -121 208 -190 86 -89 145 -180 199 -307 25 -60 49 -111 52 -115 6 -7 31
32 101 157 108 194 220 374 276 444 70 87 183 205 566 592 123 124 236 245
253 270 16 24 33 46 36 49 10 8 65 122 78 161 29 91 36 204 16 278 -40 152
-153 284 -311 360 -154 75 -196 86 -344 86 -158 0 -216 -15 -315 -81 -68 -45
-115 -100 -230 -266 -50 -72 -95 -133 -100 -134 -6 -2 -23 15 -40 39 -88 124
-251 259 -385 317 -30 13 -57 26 -60 27 -2 2 -4 182 -5 401 l0 397 -67 1 c-38
1 -69 1 -69 0z"/>
</g>
</svg>
